# xmcd
#
# Track frame offsets:
#	150
#	14517
#	29946
#	46453
#	60779
#	74394
#	89085
#	103836
#	117700
#	131703
#
# Disc length: 1961 seconds
#
# Revision: 1
# Processed by: cddbd v1.5.2PL0 Copyright (c) Steve Scherf et al.
# Submitted via: audiograbber 1.83.01
#
DISCID=9907a70a
DTITLE=Runaway June - Blue Roses
DYEAR=2019
DGENRE=Country
TTITLE0=Head Over Heels
TTITLE1=Buy My Own Drinks
TTITLE2=We Were Rich
TTITLE3=I Know The Way
TTITLE4=Trouble With This Town
TTITLE5=Got Me Where I Want You
TTITLE6=Fast As You
TTITLE7=I Am Too
TTITLE8=Good, Bad and Ugly
TTITLE9=Blue Roses
EXTD=
EXTT0=
EXTT1=
EXTT2=
EXTT3=
EXTT4=
EXTT5=
EXTT6=
EXTT7=
EXTT8=
EXTT9=
PLAYORDER=
